<svg width="17" height="18" viewBox="0 0 17 18" fill="none" xmlns="http://www.w3.org/2000/svg">
<path d="M7.93752 13.1667H9.18752V9.70834H12.6667V8.45834H9.18752V4.83334H7.93752V8.45834H4.33335V9.70834H7.93752V13.1667ZM8.50556 17.3333C7.35648 17.3333 6.27662 17.1146 5.26598 16.6771C4.25534 16.2396 3.37155 15.6424 2.6146 14.8854C1.85766 14.1285 1.26044 13.2442 0.822937 12.2325C0.385437 11.2208 0.166687 10.1399 0.166687 8.98959C0.166687 7.83933 0.385437 6.75836 0.822937 5.74669C1.26044 4.73501 1.85766 3.85417 2.6146 3.10417C3.37155 2.35417 4.25586 1.76042 5.26754 1.32292C6.27921 0.885422 7.36017 0.666672 8.51044 0.666672C9.6607 0.666672 10.7417 0.885422 11.7533 1.32292C12.765 1.76042 13.6459 2.35417 14.3959 3.10417C15.1459 3.85417 15.7396 4.73612 16.1771 5.75001C16.6146 6.76389 16.8334 7.84538 16.8334 8.99446C16.8334 10.1435 16.6146 11.2234 16.1771 12.234C15.7396 13.2447 15.1459 14.1272 14.3959 14.8816C13.6459 15.636 12.7639 16.2332 11.75 16.6733C10.7361 17.1133 9.65465 17.3333 8.50556 17.3333ZM8.51044 16.0833C10.4757 16.0833 12.1459 15.3924 13.5209 14.0104C14.8959 12.6285 15.5834 10.9549 15.5834 8.98959C15.5834 7.02431 14.8972 5.35417 13.5248 3.97917C12.1524 2.60417 10.4775 1.91667 8.50002 1.91667C6.54169 1.91667 4.87155 2.60287 3.4896 3.97526C2.10766 5.34766 1.41669 7.02258 1.41669 9.00001C1.41669 10.9583 2.10766 12.6285 3.4896 14.0104C4.87155 15.3924 6.54516 16.0833 8.51044 16.0833Z" fill="#00B300"/>
</svg>
