<svg width="16" height="21" viewBox="0 0 16 21" fill="none" xmlns="http://www.w3.org/2000/svg">
<path d="M1.5 21C1.0875 21 0.734375 20.8531 0.440625 20.5594C0.146875 20.2656 0 19.9125 0 19.5V8.65C0 8.2375 0.146875 7.88438 0.440625 7.59063C0.734375 7.29688 1.0875 7.15 1.5 7.15H3.25V4.75C3.25 3.43583 3.71338 2.31563 4.64015 1.38938C5.56692 0.463125 6.68775 0 8.00265 0C9.31755 0 10.4375 0.463125 11.3625 1.38938C12.2875 2.31563 12.75 3.43583 12.75 4.75V7.15H14.5C14.9125 7.15 15.2656 7.29688 15.5594 7.59063C15.8531 7.88438 16 8.2375 16 8.65V19.5C16 19.9125 15.8531 20.2656 15.5594 20.5594C15.2656 20.8531 14.9125 21 14.5 21H1.5ZM1.5 19.5H14.5V8.65H1.5V19.5ZM8.0042 16C8.53473 16 8.9875 15.8164 9.3625 15.4492C9.7375 15.082 9.925 14.6406 9.925 14.125C9.925 13.625 9.7361 13.1708 9.3583 12.7625C8.9805 12.3542 8.52633 12.15 7.9958 12.15C7.46527 12.15 7.0125 12.3542 6.6375 12.7625C6.2625 13.1708 6.075 13.6292 6.075 14.1375C6.075 14.6458 6.2639 15.0833 6.6417 15.45C7.0195 15.8167 7.47367 16 8.0042 16ZM4.75 7.15H11.25V4.75C11.25 3.84722 10.9343 3.07986 10.3029 2.44792C9.67157 1.81597 8.9049 1.5 8.00295 1.5C7.10098 1.5 6.33333 1.81597 5.7 2.44792C5.06667 3.07986 4.75 3.84722 4.75 4.75V7.15Z" fill="#333333" fill-opacity="0.5"/>
</svg>
