<svg width="20" height="20" viewBox="0 0 20 20" fill="none" xmlns="http://www.w3.org/2000/svg">
<path d="M1.5 20C1.1 20 0.75 19.85 0.45 19.55C0.15 19.25 0 18.9 0 18.5V6.5C0 6.1 0.15 5.75 0.45 5.45C0.75 5.15 1.1 5 1.5 5H7.75V1.5C7.75 1.1 7.9 0.75 8.2 0.45C8.5 0.15 8.85343 0 9.26028 0H10.7397C11.1466 0 11.5 0.15 11.8 0.45C12.1 0.75 12.25 1.1 12.25 1.5V5H18.5C18.9 5 19.25 5.15 19.55 5.45C19.85 5.75 20 6.1 20 6.5V18.5C20 18.9 19.85 19.25 19.55 19.55C19.25 19.85 18.9 20 18.5 20H1.5ZM1.5 18.5H18.5V6.5H12.25V7.25C12.25 7.71667 12.1 8.08333 11.8 8.35C11.5 8.61667 11.1466 8.75 10.7397 8.75H9.26028C8.85343 8.75 8.5 8.61667 8.2 8.35C7.9 8.08333 7.75 7.71667 7.75 7.25V6.5H1.5V18.5ZM3.8 15.825H9.775V15.475C9.775 15.175 9.7 14.9083 9.55 14.675C9.4 14.4417 9.20833 14.2833 8.975 14.2C8.44167 14.0167 8.025 13.8958 7.725 13.8375C7.425 13.7792 7.13333 13.75 6.85 13.75C6.53333 13.75 6.19583 13.7875 5.8375 13.8625C5.47917 13.9375 5.075 14.05 4.625 14.2C4.375 14.2833 4.175 14.4417 4.025 14.675C3.875 14.9083 3.8 15.175 3.8 15.475V15.825ZM12.2 14.15H16.45V12.9H12.2V14.15ZM6.85 12.9C7.225 12.9 7.54375 12.7688 7.80625 12.5063C8.06875 12.2438 8.2 11.925 8.2 11.55C8.2 11.175 8.06875 10.8562 7.80625 10.5938C7.54375 10.3313 7.225 10.2 6.85 10.2C6.475 10.2 6.15625 10.3313 5.89375 10.5938C5.63125 10.8562 5.5 11.175 5.5 11.55C5.5 11.925 5.63125 12.2438 5.89375 12.5063C6.15625 12.7688 6.475 12.9 6.85 12.9ZM12.2 11.325H16.45V10.075H12.2V11.325ZM9.25 7.25H10.75V1.5H9.25V7.25Z" fill="#333333" fill-opacity="0.5"/>
</svg>
