<svg width="24" height="24" viewBox="0 0 24 24" fill="none" xmlns="http://www.w3.org/2000/svg">
<path d="M16 11C16.2833 11 16.5208 10.9042 16.7125 10.7125C16.9042 10.5208 17 10.2833 17 10C17 9.71667 16.9042 9.47917 16.7125 9.2875C16.5208 9.09583 16.2833 9 16 9C15.7167 9 15.4792 9.09583 15.2875 9.2875C15.0958 9.47917 15 9.71667 15 10C15 10.2833 15.0958 10.5208 15.2875 10.7125C15.4792 10.9042 15.7167 11 16 11ZM8 8.5H13V7H8V8.5ZM4.5 21C3.93333 19.1 3.375 17.2042 2.825 15.3125C2.275 13.4208 2 11.4833 2 9.5C2 7.96667 2.53333 6.66667 3.6 5.6C4.66667 4.53333 5.96667 4 7.5 4H12.5C12.9833 3.36667 13.5708 2.875 14.2625 2.525C14.9542 2.175 15.7 2 16.5 2C16.9167 2 17.2708 2.14583 17.5625 2.4375C17.8542 2.72917 18 3.08333 18 3.5C18 3.6 17.9875 3.7 17.9625 3.8C17.9375 3.9 17.9083 3.99167 17.875 4.075C17.8083 4.25833 17.7458 4.44583 17.6875 4.6375C17.6292 4.82917 17.5833 5.025 17.55 5.225L19.825 7.5H22V14.475L19.175 15.4L17.5 21H12V19H10V21H4.5ZM5.625 19.5H8.5V17.5H13.5V19.5H16.375L17.95 14.25L20.5 13.375V9H19.2L16 5.8C16.0167 5.38333 16.0708 4.97917 16.1625 4.5875C16.2542 4.19583 16.35 3.8 16.45 3.4C15.8167 3.56667 15.2167 3.8125 14.65 4.1375C14.0833 4.4625 13.65 4.91667 13.35 5.5H7.5C6.39523 5.5 5.45237 5.89047 4.67142 6.67142C3.89047 7.45237 3.5 8.39523 3.5 9.5C3.5 11.2193 3.74167 12.8991 4.225 14.5395C4.70833 16.1798 5.175 17.8333 5.625 19.5Z" fill="#F6C90E"/>
</svg>
