<svg width="24" height="24" viewBox="0 0 24 24" fill="none" xmlns="http://www.w3.org/2000/svg">
<path d="M20.65 9.375L19.6 8.325L20.725 7.2L16.8 3.275L15.675 4.4L14.6 3.325L15.35 2.55C15.7333 2.16667 16.2083 1.97917 16.775 1.9875C17.3417 1.99583 17.8167 2.19167 18.2 2.575L21.425 5.8C21.8083 6.18333 22 6.65417 22 7.2125C22 7.77083 21.8083 8.24167 21.425 8.625L20.65 9.375ZM8.65001 21.4C8.26668 21.7833 7.79585 21.975 7.23751 21.975C6.67918 21.975 6.20835 21.7833 5.82501 21.4L2.25001 17.825C1.96668 17.5354 1.82501 17.1796 1.82501 16.7578C1.82501 16.3359 1.96668 15.9833 2.25001 15.7L3.35001 14.6L4.42501 15.65L3.30001 16.775L7.22501 20.7L8.35001 19.575L9.40001 20.65L8.65001 21.4ZM18.575 13.7L20.7 11.575L12.425 3.3L10.3 5.425L18.575 13.7ZM11.575 20.7L13.725 18.55L5.45001 10.275L3.30001 12.425L11.575 20.7ZM11.8 14.5L14.525 11.775L12.225 9.475L9.50001 12.2L11.8 14.5ZM12.625 21.75C12.3428 22.0333 11.9931 22.175 11.5758 22.175C11.1586 22.175 10.8083 22.0333 10.525 21.75L2.25001 13.475C1.96668 13.1928 1.82501 12.843 1.82501 12.4258C1.82501 12.0086 1.96668 11.6583 2.25001 11.375L4.37501 9.225C4.66465 8.94167 5.02039 8.8 5.44224 8.8C5.86409 8.8 6.21668 8.94167 6.50001 9.225L8.42501 11.15L11.175 8.4L9.25001 6.475C8.96668 6.19277 8.82501 5.84304 8.82501 5.42582C8.82501 5.00861 8.96668 4.65833 9.25001 4.375L11.375 2.225C11.6646 1.94167 12.0204 1.8 12.4422 1.8C12.8641 1.8 13.2167 1.94167 13.5 2.225L21.775 10.5C22.0583 10.7896 22.2 11.1454 22.2 11.5672C22.2 11.9891 22.0583 12.3417 21.775 12.625L19.625 14.75C19.3428 15.0333 18.9931 15.175 18.5758 15.175C18.1586 15.175 17.8083 15.0333 17.525 14.75L15.6 12.825L12.85 15.575L14.775 17.5C15.0583 17.7896 15.2 18.1454 15.2 18.5672C15.2 18.9891 15.0583 19.3417 14.775 19.625L12.625 21.75Z" fill="#7ED8D0"/>
</svg>
