<svg width="24" height="24" viewBox="0 0 24 24" fill="none" xmlns="http://www.w3.org/2000/svg">
<path d="M3.86583 4.51436L3.86583 4.51436C4.77622 3.60512 5.89313 3.15 7.25 3.15C8.11727 3.15 8.91239 3.35442 9.6443 3.76187C10.3793 4.17107 11.0293 4.76694 11.5915 5.56334L11.9805 6.11445L12.3947 5.58197C13.0637 4.72182 13.7552 4.11125 14.4634 3.72698C15.1728 3.34211 15.9324 3.15 16.75 3.15C18.1069 3.15 19.2238 3.60512 20.1342 4.51436L20.4875 4.16058L20.1342 4.51436C21.0431 5.42208 21.5 6.54711 21.5 7.925C21.5 8.6305 21.3737 9.33067 21.1181 10.0279C20.8649 10.7184 20.4142 11.5134 19.7478 12.4154C19.0828 13.3156 18.1821 14.347 17.0402 15.5108L17.3971 15.861L17.0402 15.5108C15.8967 16.6762 14.4466 18.0657 12.6883 19.6803C12.6878 19.6808 12.6873 19.6813 12.6868 19.6817L12 20.3015L11.3132 19.6817C11.3126 19.6812 11.3121 19.6807 11.3116 19.6802C9.55329 18.0657 8.10325 16.6762 6.95979 15.5108L6.6029 15.861L6.95979 15.5108C5.81786 14.347 4.91718 13.3156 4.25216 12.4154C3.58582 11.5134 3.13512 10.7184 2.88194 10.0279C2.6263 9.33067 2.5 8.6305 2.5 7.925C2.5 6.54711 2.95693 5.42208 3.86583 4.51436ZM11.6615 19.368L11.9997 19.6792L12.3382 19.3682C14.0291 17.815 15.4243 16.4796 16.522 15.3631C17.6198 14.2465 18.5004 13.2599 19.1587 12.405C19.8161 11.5513 20.2956 10.7671 20.5774 10.0557C20.8568 9.35022 21 8.64024 21 7.92863C21 6.71004 20.6084 5.67339 19.8056 4.86105L19.45 5.2125L19.8056 4.86105C19.0018 4.04761 17.9707 3.65 16.7556 3.65C15.787 3.65 14.8911 3.94846 14.0795 4.53142L14.3712 4.9375L14.0795 4.53142C13.3469 5.05774 12.7527 5.76931 12.2907 6.65H11.6866C11.2382 5.78375 10.6522 5.07786 9.92349 4.54611L9.92349 4.54611C9.11194 3.95389 8.21494 3.65 7.24437 3.65C6.02932 3.65 4.99823 4.04761 4.19436 4.86105C3.39132 5.67365 3 6.71186 3 7.9329C3 8.64594 3.1431 9.35927 3.42205 10.0701C3.70345 10.7873 4.18258 11.5785 4.83987 12.4406C5.49977 13.3062 6.38725 14.2944 7.49645 15.4036C8.60301 16.5101 9.99177 17.8318 11.6615 19.368Z" stroke="#FF3F34"/>
</svg>
